{"title":"Exclusive Teen Porn - Kitana - Pussy Fucking 720p","uid":7833298,"size":677507843,"categoryP":"porn","categoryS":"movie_clips","magnet":"?xt=urn:btih:d1dc86f8eb79da52e6f59310f81a04f2e48c6779&amp;dn=Exclusive+Teen+Porn+-+Kitana+-+Pussy+Fucking+720p&amp;tr=udp%3A%2F%2Ftracker.openbittorrent.com%3A80&amp;tr=udp%3A%2F%2Fopen.demonii.com%3A1337&amp;tr=udp%3A%2F%2Ftracker.coppersurfer.tk%3A6969&amp;tr=udp%3A%2F%2Fexodus.desync.com%3A6969","seeders":2,"leechers":3,"uploader":"athklym","files":-1,"time":1353128353,"description":" &lt;a href=&quot;http://bayimg.com/pageHAaea&quot; rel=&quot;nofollow&quot; target=&quot;_NEW&quot;&gt;http://bayimg.com/pageHAaea&lt;/a&gt;\nExclusiveTeenPorn_Pussy_Fucking_Kitana_720p.wmv\nFormat                                   : Windows Media\nFile size                                : 646 MiB\nDuration                                 : 21mn 49s\nOverall bit rate mode                    : Variable\nOverall bit rate                         : 4 140 Kbps\nMaximum Overall bit rate                 : 10.2 Mbps\nEncoded date                             : UTC 2011-12-28 15:34:15.238\n\nVideo\nID                                       : 2\nFormat                                   : VC-1\nFormat profile                           : MP@HL\nCodec ID                                 : WMV3\nCodec ID/Info                            : Windows Media Video 9\nCodec ID/Hint                            : WMV3\nDescription of the codec                 : Windows Media Video 9 - Professional\nDuration                                 : 21mn 49s\nBit rate mode                            : Variable\nBit rate                                 : 4 000 Kbps\nWidth                                    : 1 280 pixels\nHeight                                   : 720 pixels\nDisplay aspect ratio                     : 16:9\nFrame rate                               : 25.000 fps\nBit depth                                : 8 bits\nScan type                                : Progressive\nCompression mode                         : Lossy\nBits/(Pixel*Frame)                       : 0.174\nStream size                              : 624 MiB (97%)\nNumberOfFrames                           : 32722\n\nAudio\nID                                       : 1\nFormat                                   : WMA\nFormat profile                           : Pro\nCodec ID                                 : 162\nCodec ID/Info                            : Windows Media Audio\nDescription of the codec                 : Windows Media Audio 10 Professional - 128 kbps, 44 kHz, 2 channel 16 bit 1-pass CBR\nDuration                                 : 21mn 49s\nBit rate mode                            : Constant\nBit rate                                 : 128 Kbps\nChannel(s)                               : 2 channels\nSampling rate                            : 44.1 KHz\nBit depth                                : 16 bits\nStream size                              : 20.0 MiB (3%)\nNumberOfFrames                           : 3525\n\n","torrent":{"xt":"urn:btih:d1dc86f8eb79da52e6f59310f81a04f2e48c6779","amp;dn":"Exclusive+Teen+Porn+-+Kitana+-+Pussy+Fucking+720p","amp;tr":["udp%3A%2F%2Ftracker.openbittorrent.com%3A80","udp%3A%2F%2Fopen.demonii.com%3A1337","udp%3A%2F%2Ftracker.coppersurfer.tk%3A6969","udp%3A%2F%2Fexodus.desync.com%3A6969"],"infoHash":"d1dc86f8eb79da52e6f59310f81a04f2e48c6779","infoHashBuffer":{"type":"Buffer","data":[209,220,134,248,235,121,218,82,230,245,147,16,248,26,4,242,228,140,103,121]},"announce":[],"urlList":[]}}